<svg height='200' width='200'  fill="#000000" xmlns="http://www.w3.org/2000/svg" xmlns:xlink="http://www.w3.org/1999/xlink" version="1.1" x="0px" y="0px" viewBox="0 0 100 100" enable-background="new 0 0 100 100" xml:space="preserve"><symbol viewBox="-13.888 -12.758 27.154 25.516"><polygon fill="#000000" points="-5.663,2.949 0,12.758 5.664,2.949  "></polygon><g><path fill="#000000" d="M-11.203-12.758h-0.499c-1.202,0-2.186,0.984-2.186,2.186v6.672c0,1.202,0.984,2.186,2.186,2.186h0.499    c1.202,0,2.186-0.984,2.186-2.186v-6.672C-9.017-11.774-10.001-12.758-11.203-12.758z"></path><path fill="#000000" d="M-3.776-12.758h-0.499c-1.202,0-2.186,0.984-2.186,2.186v6.672c0,1.202,0.984,2.186,2.186,2.186h0.499    c1.202,0,2.186-0.984,2.186-2.186v-6.672C-1.59-11.774-2.573-12.758-3.776-12.758z"></path><path fill="#000000" d="M3.652-12.758H3.153c-1.202,0-2.186,0.984-2.186,2.186l0,6.672c0,1.202,0.984,2.186,2.186,2.186h0.499    c1.202,0,2.186-0.984,2.186-2.186v-6.672C5.838-11.774,4.854-12.758,3.652-12.758z"></path><path fill="#000000" d="M11.079-12.758H10.58c-1.202,0-2.186,0.984-2.186,2.186v6.672c0,1.202,0.984,2.186,2.186,2.186h0.499    c1.202,0,2.186-0.984,2.186-2.186v-6.672C13.265-11.774,12.282-12.758,11.079-12.758z"></path></g></symbol><g display="none"><rect x="-25.242" y="-529.245" display="inline" fill="#000000" width="1251.125" height="762.076"></rect></g><g><path d="M46.802,95.734h3.062h0.27h3.062c10.347,0,18.839-8.492,18.839-18.886c0-8.191-0.207-16.428,0.019-24.61   c-0.009,0.226-1.563,1.695-1.751,2.005c-0.621,1.007-0.932,2.1-1.271,3.22c-0.584,1.949-0.429,4.59-2.109,5.639   c-4.159,2.598-7.993-3.851-10.874-5.376c-1.808-0.951-3.888-1.13-5.884-1.13c-0.057,0-0.111,0.004-0.166,0.005   c-0.056-0.002-0.109-0.005-0.166-0.005c-1.996,0-4.077,0.179-5.884,1.13c-2.881,1.525-6.715,7.974-10.874,5.376   c-1.68-1.05-1.525-3.69-2.109-5.639c-0.339-1.12-0.65-2.212-1.271-3.22c-0.188-0.311-1.742-1.779-1.751-2.005   c0.226,8.181,0.019,16.419,0.019,24.61C27.964,87.242,36.456,95.734,46.802,95.734z M47.514,60.233   c0,1.371,1.115,2.486,2.485,2.486s2.486-1.115,2.486-2.486h1.883c0,2.409-1.96,4.369-4.369,4.369s-4.368-1.96-4.368-4.369H47.514z"></path><path d="M19.72,47.321c0,2.51,2.044,4.554,4.554,4.554v-9.108C21.764,42.767,19.72,44.811,19.72,47.321z"></path><path d="M80.28,47.321c0-2.51-2.044-4.554-4.554-4.554v9.108C78.236,51.875,80.28,49.832,80.28,47.321z"></path><path d="M58.846,56.228h3.667c4.473,0,8.111-3.638,8.111-8.111v-3.218c0-1.961-1.596-3.557-3.558-3.557H54.993   c-1.918,0-3.186,1.925-3.71,3.646h-2.568c-0.524-1.721-1.792-3.646-3.71-3.646H32.934c-1.962,0-3.558,1.596-3.558,3.557v3.218   c0,4.473,3.638,8.111,8.111,8.111h3.667c4.321,0,7.836-3.515,7.836-7.836V48.22h2.021v0.172   C51.011,52.713,54.525,56.228,58.846,56.228z M54.243,46.604c0-0.653,0.521-1.758,0.875-2.03h11.948   c0.176,0,0.325,0.149,0.325,0.325v3.218c0,2.69-2.188,4.878-4.878,4.878h-3.667c-2.538,0-4.603-2.065-4.603-4.604V46.604z    M45.757,48.392c0,2.538-2.065,4.604-4.604,4.604h-3.667c-2.69,0-4.878-2.188-4.878-4.878v-3.218c0-0.176,0.149-0.325,0.325-0.325   h11.948c0.354,0.272,0.875,1.377,0.875,2.03V48.392z"></path><path d="M39.684,45.239c-2.504,0-4.541,2.037-4.541,4.541h1.729c0-1.55,1.261-2.812,2.812-2.812c1.55,0,2.811,1.261,2.811,2.812   h1.729C44.224,47.277,42.188,45.239,39.684,45.239z"></path><path d="M60.316,46.969c1.55,0,2.812,1.261,2.812,2.812h1.729c0-2.504-2.037-4.541-4.541-4.541s-4.541,2.037-4.541,4.541h1.729   C57.505,48.23,58.766,46.969,60.316,46.969z"></path><path d="M58.79,13.026c-3.49,2.999-7.746,4.803-11.862,6.547c-1.959,0.83-3.984,1.688-5.88,2.659   c-0.545,0.28-1.072,0.579-1.589,0.887c0.219-0.037,0.426-0.084,0.657-0.114c1.514-0.197,3.07-0.203,4.576-0.209   c0.492-0.001,0.982-0.003,1.466-0.012c5.166-0.086,12.664-1.143,19.056-5.688c0.517-0.366,1.029-0.765,1.533-1.19   c0.618-3.184,0.783-6.547-1.199-8.984c-0.371-0.457-0.793-0.839-1.248-1.165C62.952,8.58,61.053,11.094,58.79,13.026z"></path><path d="M74.916,25.651c-3.499,4.717-9.862,7.398-17.594,7.398c-0.161,0-0.323-0.001-0.485-0.003   c-2.514-0.04-4.814-0.854-7.039-1.642c-1.672-0.592-3.252-1.151-4.924-1.414c-0.449-0.07-0.934-0.061-1.436-0.022   c5.432,3.247,11.698,5.33,17.646,7.01c1.433,0.405,9.867,1.95,10.055,3.828c-0.345-3.751,0.284-6.648,1.809-10.094   C73.683,29.051,74.627,27.439,74.916,25.651z"></path><path d="M33.047,25.545c0.178-0.214,0.372-0.404,0.583-0.567c0.47-0.441,0.94-0.851,1.4-1.223c1.526-1.236,3.244-2.347,5.105-3.304   c1.961-1.004,4.021-1.877,6.013-2.721c4.158-1.762,8.086-3.427,11.341-6.224c2.07-1.768,3.81-4.075,5.038-6.673   c-2.686-0.963-6.044-0.579-8.907,0.241c-5.757,1.649-11.182,4.452-15.858,8.193c-3.089,2.472-5.952,5.407-9.654,6.804   c-0.719,0.271-1.485,0.494-2.055,1.01c-1.064,0.964-1.104,2.597-1.029,4.031c0.26,5.029,0.948,10.037,2.055,14.95   c0.263-1.727,0.677-3.247,1.188-4.694C28.446,31.268,30.65,27.959,33.047,25.545z"></path><path d="M46.191,24.783c-0.492,0.009-0.991,0.011-1.493,0.012c-1.443,0.005-2.936,0.011-4.324,0.192   c-1.072,0.14-1.968,0.375-2.762,0.7c0.216,0.182,0.429,0.368,0.635,0.547c0.848,0.739,1.738,1.429,2.658,2.081   c1.423-0.265,2.887-0.519,4.28-0.301c1.856,0.291,3.598,0.907,5.283,1.503c2.168,0.768,4.216,1.493,6.401,1.527   c3.504,0.045,12.195-0.515,16.639-6.843c0.089-0.171,0.561-1.395,0.843-2.126c0.006-0.016,0.011-0.029,0.017-0.045   c-1.202-2.524-3.953-4.388-6.738-4.282c-0.416,0.337-0.833,0.675-1.258,0.977C60.981,22.558,54.003,24.653,46.191,24.783z"></path></g></svg>